<svg width="25" height="23" viewBox="0 0 25 23" fill="none" xmlns="http://www.w3.org/2000/svg">
<path d="M12.1094 22.611C5.41992 22.611 0 17.725 0 11.6947C0 5.66426 5.41992 0.77832 12.1094 0.77832C18.7988 0.77832 24.2188 5.66426 24.2188 11.6947C24.2188 17.725 18.7988 22.611 12.1094 22.611ZM13.5205 16.2901L9.83398 13.1032H18.75C19.3994 13.1032 19.9219 12.6322 19.9219 12.0468V11.3425C19.9219 10.7571 19.3994 10.2861 18.75 10.2861H9.83398L13.5205 7.09923C13.9941 6.68987 14.0039 6.0076 13.54 5.58943L13.0029 5.10964C12.5439 4.69588 11.8018 4.69588 11.3477 5.10964L4.86816 10.9464C4.40918 11.3601 4.40918 12.0292 4.86816 12.4385L11.3477 18.2797C11.8066 18.6934 12.5488 18.6934 13.0029 18.2797L13.54 17.7999C14.0039 17.3817 13.9941 16.6994 13.5205 16.2901Z" fill="black"/>
</svg>
