<svg width="26" height="23" viewBox="0 0 26 23" fill="none" xmlns="http://www.w3.org/2000/svg">
<path d="M24.0544 4.16667H18.4157V1.38889C18.4157 0.62066 17.7857 0 17.006 0H8.54793C7.7682 0 7.13825 0.62066 7.13825 1.38889V4.16667H1.49952C0.719795 4.16667 0.0898438 4.78733 0.0898438 5.55556V21.5278C0.0898438 21.9097 0.407022 22.2222 0.794684 22.2222H24.7593C25.1469 22.2222 25.4641 21.9097 25.4641 21.5278V5.55556C25.4641 4.78733 24.8341 4.16667 24.0544 4.16667ZM7.13825 18.9236C7.13825 19.2101 6.90036 19.4444 6.60962 19.4444H4.84752C4.55677 19.4444 4.31889 19.2101 4.31889 18.9236V17.1875C4.31889 16.901 4.55677 16.6667 4.84752 16.6667H6.60962C6.90036 16.6667 7.13825 16.901 7.13825 17.1875V18.9236ZM7.13825 13.3681C7.13825 13.6545 6.90036 13.8889 6.60962 13.8889H4.84752C4.55677 13.8889 4.31889 13.6545 4.31889 13.3681V11.6319C4.31889 11.3455 4.55677 11.1111 4.84752 11.1111H6.60962C6.90036 11.1111 7.13825 11.3455 7.13825 11.6319V13.3681ZM14.1867 18.9236C14.1867 19.2101 13.9488 19.4444 13.658 19.4444H11.8959C11.6052 19.4444 11.3673 19.2101 11.3673 18.9236V17.1875C11.3673 16.901 11.6052 16.6667 11.8959 16.6667H13.658C13.9488 16.6667 14.1867 16.901 14.1867 17.1875V18.9236ZM14.1867 13.3681C14.1867 13.6545 13.9488 13.8889 13.658 13.8889H11.8959C11.6052 13.8889 11.3673 13.6545 11.3673 13.3681V11.6319C11.3673 11.3455 11.6052 11.1111 11.8959 11.1111H13.658C13.9488 11.1111 14.1867 11.3455 14.1867 11.6319V13.3681ZM14.8915 5.98958C14.8915 6.13281 14.7725 6.25 14.6272 6.25H13.4818V7.37847C13.4818 7.5217 13.3629 7.63889 13.2175 7.63889H12.3364C12.1911 7.63889 12.0721 7.5217 12.0721 7.37847V6.25H10.9268C10.7814 6.25 10.6624 6.13281 10.6624 5.98958V5.12153C10.6624 4.9783 10.7814 4.86111 10.9268 4.86111H12.0721V3.73264C12.0721 3.58941 12.1911 3.47222 12.3364 3.47222H13.2175C13.3629 3.47222 13.4818 3.58941 13.4818 3.73264V4.86111H14.6272C14.7725 4.86111 14.8915 4.9783 14.8915 5.12153V5.98958ZM21.2351 18.9236C21.2351 19.2101 20.9972 19.4444 20.7064 19.4444H18.9443C18.6536 19.4444 18.4157 19.2101 18.4157 18.9236V17.1875C18.4157 16.901 18.6536 16.6667 18.9443 16.6667H20.7064C20.9972 16.6667 21.2351 16.901 21.2351 17.1875V18.9236ZM21.2351 13.3681C21.2351 13.6545 20.9972 13.8889 20.7064 13.8889H18.9443C18.6536 13.8889 18.4157 13.6545 18.4157 13.3681V11.6319C18.4157 11.3455 18.6536 11.1111 18.9443 11.1111H20.7064C20.9972 11.1111 21.2351 11.3455 21.2351 11.6319V13.3681Z" fill="black"/>
</svg>
