<svg width="366" height="200" viewBox="0 0 366 200" fill="none" xmlns="http://www.w3.org/2000/svg">
<g clip-path="url(#clip0_8_160)">
<path opacity="0.1" d="M212.652 35.2716C189.189 34.6532 166.823 28.9088 145.5 22.6251C124.176 16.3415 103.041 9.37817 80.1262 6.04854C65.3936 3.9046 48.5448 3.60306 36.6765 9.59282C25.253 15.3551 21.5631 25.3031 19.5783 34.5331C18.0855 41.4785 17.2195 48.7869 21.3003 55.2902C24.141 59.803 29.1821 63.5977 32.6698 67.9214C44.801 82.9647 36.2249 101.517 23.0761 116.218C16.9095 123.117 9.75545 129.682 4.99735 137.018C0.239242 144.355 -1.96458 152.759 2.20045 160.241C6.3284 167.652 16.1614 173.228 26.8166 177.145C48.4572 185.095 73.9562 187.369 98.8217 188.672C153.863 191.526 209.202 190.29 264.388 189.053C284.812 188.593 305.327 188.13 325.418 185.731C336.575 184.4 348.096 182.289 356.197 177.193C366.479 170.723 369.029 159.771 362.138 151.658C350.58 138.053 318.625 134.672 310.544 120.071C306.099 112.034 310.665 103.08 317.128 95.6265C330.988 79.6377 354.226 65.6088 355.449 47.3303C356.292 34.7758 345.121 22.2061 327.848 16.2649C309.745 10.0323 284.64 10.8194 271.286 21.12C257.534 31.7324 233.366 35.8159 212.652 35.2716Z" fill="#6C63FF"/>
<path d="M81.6325 185.273C81.6325 185.273 63.0988 174.648 59.5976 161.133C58.1777 155.457 54.3693 150.282 48.7436 146.386C46.0523 144.553 43.1456 142.911 40.0597 141.48" stroke="#535461" stroke-width="2" stroke-miterlimit="10"/>
<path d="M37.7919 132.965C39.4161 134.631 40.1508 141.692 40.1508 141.692C40.1508 141.692 31.4669 139.098 29.8393 137.435C29.0577 136.635 28.7271 135.633 28.9202 134.648C29.1132 133.663 29.8142 132.777 30.8687 132.185C31.9233 131.592 33.2452 131.341 34.5435 131.488C35.8419 131.634 37.0104 132.166 37.7919 132.965Z" fill="#6C63FF"/>
<path d="M53.3669 138.505C53.5354 140.573 49.0974 146.803 49.0974 146.803C49.0974 146.803 43.662 141.043 43.4901 138.976C43.4248 137.99 43.8742 137.025 44.7409 136.289C45.6076 135.553 46.8219 135.105 48.1207 135.043C49.4194 134.981 50.698 135.31 51.6793 135.958C52.6607 136.606 53.2658 137.521 53.3635 138.505H53.3669Z" fill="#6C63FF"/>
<path d="M68.4634 154.43C67.2368 156.28 59.2538 159.96 59.2538 159.96C59.2538 159.96 58.4013 152.907 59.6279 151.057C60.2317 150.187 61.2618 149.532 62.4965 149.232C63.7312 148.932 65.0718 149.012 66.2299 149.454C67.3879 149.896 68.2708 150.665 68.6885 151.596C69.1062 152.526 69.0254 153.544 68.4634 154.43Z" fill="#6C63FF"/>
<path d="M76.3117 168.423C75.513 170.404 68.4669 175.052 68.4669 175.052C68.4669 175.052 66.0507 168.211 66.8494 166.228C67.2332 165.277 68.0998 164.48 69.2585 164.013C70.4172 163.546 71.7731 163.447 73.0278 163.738C74.2826 164.029 75.3335 164.686 75.9493 165.565C76.5652 166.444 76.6955 167.472 76.3117 168.423Z" fill="#6C63FF"/>
<path d="M41.0639 151.811C43.7597 152.087 52.2819 149.169 52.2819 149.169C52.2819 149.169 45.0908 144.651 42.3815 144.375C41.0812 144.243 39.7646 144.507 38.7216 145.111C37.6786 145.714 36.9944 146.607 36.8197 147.594C36.645 148.58 36.994 149.578 37.7899 150.369C38.5859 151.16 39.7636 151.679 41.0639 151.811Z" fill="#6C63FF"/>
<path d="M50.5162 168.091C53.212 167.741 60.1773 163.027 60.1773 163.027C60.1773 163.027 51.5304 160.349 48.838 160.699C48.1934 160.779 47.5761 160.955 47.0217 161.217C46.4673 161.479 45.9869 161.822 45.6081 162.225C45.2293 162.629 44.9596 163.085 44.8147 163.568C44.6698 164.051 44.6524 164.551 44.7637 165.039C44.8749 165.527 45.1126 165.994 45.4629 166.412C45.8132 166.83 46.2692 167.192 46.8047 167.475C47.3401 167.759 47.9444 167.96 48.5825 168.065C49.2207 168.171 49.8802 168.18 50.5229 168.091H50.5162Z" fill="#6C63FF"/>
<path d="M62.563 182.961C65.2959 182.961 73.2148 179.207 73.2148 179.207C73.2148 179.207 65.2925 175.458 62.5596 175.458C61.2476 175.458 59.9894 175.854 59.0617 176.557C58.134 177.261 57.6128 178.215 57.6128 179.21C57.6128 180.205 58.134 181.159 59.0617 181.862C59.9894 182.566 61.2476 182.961 62.5596 182.961H62.563Z" fill="#6C63FF"/>
<path d="M261.679 93.3752C261.679 93.3752 273.102 78.0303 290.322 73.6096C297.553 71.7886 303.81 68.2389 308.155 63.4929C310.193 61.224 311.951 58.8178 313.408 56.3047" stroke="#535461" stroke-width="2" stroke-miterlimit="10"/>
<path d="M324.218 53.4938C322.257 54.935 313.128 56.4274 313.128 56.4274C313.128 56.4274 315.369 49.5534 317.331 48.1097C318.277 47.4376 319.534 47.0742 320.83 47.0979C322.127 47.1215 323.359 47.5303 324.262 48.2361C325.165 48.9419 325.666 49.8884 325.658 50.8717C325.65 51.8551 325.133 52.7967 324.218 53.4938Z" fill="#6C63FF"/>
<path d="M319.056 65.9205C316.36 66.3243 307.642 63.8149 307.642 63.8149C307.642 63.8149 314.449 58.9597 317.128 58.5636C317.772 58.4554 318.437 58.4457 319.085 58.5351C319.733 58.6245 320.352 58.8112 320.903 59.0842C321.455 59.3573 321.929 59.7111 322.298 60.1251C322.667 60.539 322.924 61.0047 323.052 61.4948C323.18 61.9849 323.178 62.4895 323.046 62.9789C322.914 63.4684 322.654 63.9329 322.282 64.3452C321.909 64.7574 321.432 65.1092 320.878 65.3797C320.324 65.6502 319.705 65.8341 319.056 65.9205Z" fill="#6C63FF"/>
<path d="M300.266 79.3821C297.685 78.7049 291.818 73.1956 291.818 73.1956C291.818 73.1956 300.916 71.6164 303.504 72.2936C304.126 72.45 304.701 72.6985 305.195 73.0247C305.689 73.3509 306.093 73.7482 306.383 74.1937C306.673 74.6392 306.843 75.1239 306.884 75.6197C306.925 76.1155 306.836 76.6126 306.621 77.082C306.407 77.5514 306.071 77.9838 305.635 78.3542C305.198 78.7246 304.669 79.0255 304.078 79.2395C303.486 79.4534 302.845 79.5762 302.191 79.6007C301.536 79.6252 300.882 79.5509 300.266 79.3821Z" fill="#6C63FF"/>
<path d="M282.999 87.1402C280.304 86.8029 273.308 82.1138 273.308 82.1138C273.308 82.1138 281.931 79.3898 284.624 79.7271C285.92 79.8887 287.078 80.4341 287.843 81.2433C288.609 82.0525 288.919 83.0591 288.706 84.0418C288.493 85.0245 287.774 85.9027 286.707 86.4833C285.64 87.0639 284.312 87.2993 283.016 87.1376L282.999 87.1402Z" fill="#6C63FF"/>
<path d="M300.03 58.441C300.027 60.5134 304.984 66.5261 304.984 66.5261C304.984 66.5261 309.934 60.521 309.934 58.4512C309.951 57.9505 309.836 57.4523 309.595 56.9859C309.354 56.5195 308.993 56.0944 308.532 55.7356C308.071 55.3768 307.52 55.0917 306.912 54.897C306.303 54.7023 305.649 54.602 304.989 54.602C304.328 54.602 303.674 54.7023 303.066 54.897C302.457 55.0917 301.906 55.3768 301.445 55.7356C300.985 56.0944 300.623 56.5195 300.382 56.9859C300.142 57.4523 300.026 57.9505 300.044 58.4512L300.03 58.441Z" fill="#6C63FF"/>
<path d="M280.004 67.7067C280.819 69.6845 287.909 74.2969 287.909 74.2969C287.909 74.2969 290.268 67.4435 289.446 65.4656C289.019 64.5493 288.141 63.7942 286.995 63.3593C285.849 62.9244 284.525 62.8436 283.302 63.1341C282.079 63.4245 281.053 64.0635 280.439 64.9164C279.825 65.7693 279.671 66.7696 280.01 67.7067H280.004Z" fill="#6C63FF"/>
<path d="M262.188 78.7382C262.552 80.7824 268.509 86.2432 268.509 86.2432C268.509 86.2432 272.354 79.791 271.99 77.739C271.918 77.2418 271.716 76.7606 271.395 76.3237C271.073 75.8868 270.64 75.503 270.121 75.1948C269.601 74.8867 269.006 74.6604 268.369 74.5294C267.733 74.3984 267.068 74.3652 266.414 74.4318C265.761 74.4984 265.131 74.6635 264.563 74.9174C263.994 75.1712 263.499 75.5087 263.105 75.9099C262.711 76.3112 262.427 76.7681 262.27 77.2538C262.112 77.7395 262.084 78.2442 262.188 78.7382Z" fill="#6C63FF"/>
<path opacity="0.25" d="M324.218 53.4938C322.257 54.935 313.128 56.4274 313.128 56.4274C313.128 56.4274 315.369 49.5534 317.331 48.1097C318.277 47.4376 319.534 47.0742 320.83 47.0979C322.127 47.1215 323.359 47.5303 324.262 48.2361C325.165 48.9419 325.666 49.8884 325.658 50.8717C325.65 51.8551 325.133 52.7967 324.218 53.4938Z" fill="black"/>
<path opacity="0.25" d="M319.056 65.9205C316.36 66.3243 307.642 63.8149 307.642 63.8149C307.642 63.8149 314.449 58.9597 317.128 58.5636C317.772 58.4554 318.437 58.4457 319.085 58.5351C319.733 58.6245 320.352 58.8112 320.903 59.0842C321.455 59.3573 321.929 59.7111 322.298 60.1251C322.667 60.539 322.924 61.0047 323.052 61.4948C323.18 61.9849 323.178 62.4895 323.046 62.9789C322.914 63.4684 322.654 63.9329 322.282 64.3452C321.909 64.7574 321.432 65.1092 320.878 65.3797C320.324 65.6502 319.705 65.8341 319.056 65.9205Z" fill="black"/>
<path opacity="0.25" d="M300.266 79.3821C297.685 78.7049 291.818 73.1956 291.818 73.1956C291.818 73.1956 300.916 71.6164 303.504 72.2936C304.126 72.45 304.701 72.6985 305.195 73.0247C305.689 73.3509 306.093 73.7482 306.383 74.1937C306.673 74.6392 306.843 75.1239 306.884 75.6197C306.925 76.1155 306.836 76.6126 306.621 77.082C306.407 77.5514 306.071 77.9838 305.635 78.3542C305.198 78.7246 304.669 79.0255 304.078 79.2395C303.486 79.4534 302.845 79.5762 302.191 79.6007C301.536 79.6252 300.882 79.5509 300.266 79.3821Z" fill="black"/>
<path opacity="0.25" d="M282.999 87.1402C280.304 86.8029 273.308 82.1138 273.308 82.1138C273.308 82.1138 281.931 79.3898 284.624 79.7271C285.92 79.8887 287.078 80.4341 287.843 81.2433C288.609 82.0525 288.919 83.0591 288.706 84.0418C288.493 85.0245 287.774 85.9027 286.707 86.4833C285.64 87.0639 284.312 87.2993 283.016 87.1376L282.999 87.1402Z" fill="black"/>
<path opacity="0.25" d="M300.03 58.441C300.027 60.5134 304.984 66.5261 304.984 66.5261C304.984 66.5261 309.934 60.521 309.934 58.4512C309.951 57.9505 309.836 57.4523 309.595 56.9859C309.354 56.5195 308.993 56.0944 308.532 55.7356C308.071 55.3768 307.52 55.0917 306.912 54.897C306.303 54.7023 305.649 54.602 304.989 54.602C304.328 54.602 303.674 54.7023 303.066 54.897C302.457 55.0917 301.906 55.3768 301.445 55.7356C300.985 56.0944 300.623 56.5195 300.382 56.9859C300.142 57.4523 300.026 57.9505 300.044 58.4512L300.03 58.441Z" fill="black"/>
<path opacity="0.25" d="M280.004 67.7067C280.819 69.6845 287.909 74.2969 287.909 74.2969C287.909 74.2969 290.268 67.4435 289.446 65.4656C289.019 64.5493 288.141 63.7942 286.995 63.3593C285.849 62.9244 284.525 62.8436 283.302 63.1341C282.079 63.4245 281.053 64.0635 280.439 64.9164C279.825 65.7693 279.671 66.7696 280.01 67.7067H280.004Z" fill="black"/>
<path opacity="0.25" d="M262.188 78.7382C262.552 80.7824 268.509 86.2432 268.509 86.2432C268.509 86.2432 272.354 79.791 271.99 77.739C271.918 77.2418 271.716 76.7606 271.395 76.3237C271.073 75.8868 270.64 75.503 270.121 75.1948C269.601 74.8867 269.006 74.6604 268.369 74.5294C267.733 74.3984 267.068 74.3652 266.414 74.4318C265.761 74.4984 265.131 74.6635 264.563 74.9174C263.994 75.1712 263.499 75.5087 263.105 75.9099C262.711 76.3112 262.427 76.7681 262.27 77.2538C262.112 77.7395 262.084 78.2442 262.188 78.7382Z" fill="black"/>
<path d="M262.336 93.0712C262.336 93.0712 264.58 75.5312 277.945 66.2041C283.582 62.317 287.405 57.1491 288.843 51.4751C289.497 48.7777 289.823 46.0405 289.816 43.2979" stroke="#535461" stroke-width="2" stroke-miterlimit="10"/>
<path d="M298.194 37.3797C297.183 39.3014 289.621 43.4717 289.621 43.4717C289.621 43.4717 287.997 36.4981 289.018 34.5765C289.509 33.6538 290.464 32.9169 291.672 32.528C292.88 32.1392 294.242 32.1301 295.459 32.5028C296.676 32.8756 297.648 33.5996 298.16 34.5156C298.673 35.4317 298.685 36.4647 298.194 37.3874V37.3797Z" fill="#6C63FF"/>
<path d="M300.118 50.3405C297.884 51.5313 288.56 51.9223 288.56 51.9223C288.56 51.9223 292.192 45.3959 294.426 44.2051C294.956 43.9044 295.56 43.6873 296.203 43.5668C296.845 43.4463 297.513 43.4248 298.166 43.5036C298.82 43.5823 299.446 43.7597 300.008 44.0252C300.569 44.2907 301.055 44.639 301.436 45.0494C301.817 45.4599 302.085 45.9241 302.225 46.4145C302.365 46.905 302.374 47.4119 302.251 47.905C302.128 48.3981 301.876 48.8675 301.51 49.2854C301.143 49.7033 300.67 50.0612 300.118 50.3379V50.3405Z" fill="#6C63FF"/>
<path d="M290.123 68.4273C287.4 68.6011 279.09 65.3609 279.09 65.3609C279.09 65.3609 286.571 61.119 289.294 60.9452C290.602 60.8619 291.899 61.1758 292.902 61.8179C293.904 62.4601 294.529 63.3779 294.639 64.3694C294.748 65.3609 294.334 66.3449 293.488 67.105C292.641 67.865 291.431 68.3388 290.123 68.4222V68.4273Z" fill="#6C63FF"/>
<path d="M278.494 80.8182C275.849 81.3293 266.939 79.216 266.939 79.216C266.939 79.216 273.365 74.0772 276.011 73.5559C277.28 73.3062 278.629 73.4492 279.76 73.9536C280.891 74.458 281.711 75.2824 282.041 76.2454C282.37 77.2085 282.181 78.2313 281.516 79.0888C280.851 79.9464 279.764 80.5685 278.494 80.8182Z" fill="#6C63FF"/>
<path d="M278.73 49.349C279.835 51.2425 287.565 55.2263 287.565 55.2263C287.565 55.2263 288.88 48.2144 287.774 46.3209C287.224 45.435 286.238 44.7476 285.028 44.4055C283.817 44.0635 282.479 44.0939 281.298 44.4903C280.117 44.8867 279.187 45.6177 278.707 46.527C278.227 47.4363 278.235 48.4519 278.73 49.3567V49.349Z" fill="#6C63FF"/>
<path d="M265.372 63.9708C267.175 65.527 276.118 67.5662 276.118 67.5662C276.118 67.5662 274.609 60.5773 272.806 59.0211C272.38 58.643 271.86 58.3328 271.275 58.1086C270.69 57.8844 270.052 57.7505 269.398 57.7148C268.745 57.6792 268.088 57.7424 267.467 57.9008C266.845 58.0592 266.272 58.3096 265.779 58.6376C265.287 58.9656 264.885 59.3645 264.598 59.8111C264.31 60.2578 264.143 60.7434 264.105 61.2396C264.067 61.7358 264.159 62.2328 264.377 62.7017C264.594 63.1705 264.933 63.6019 265.372 63.9708Z" fill="#6C63FF"/>
<path d="M254.963 79.538C256.392 81.3012 264.752 84.4571 264.752 84.4571C264.752 84.4571 264.823 77.3762 263.404 75.6104C262.698 74.7951 261.601 74.2205 260.345 74.0084C259.09 73.7963 257.775 73.9634 256.679 74.4743C255.583 74.9851 254.793 75.7996 254.476 76.7449C254.158 77.6903 254.339 78.6921 254.98 79.538H254.963Z" fill="#6C63FF"/>
<path d="M245.15 24.3806C245.71 22.8244 246.384 21.2606 246.855 19.6839C246.289 21.2606 245.612 22.8295 245.15 24.3806Z" fill="url(#paint0_linear_8_160)"/>
<path d="M242.643 39.3704C242.596 39.309 242.562 39.2477 242.525 39.1915C242.525 39.166 242.491 39.1455 242.478 39.12C242.405 39.1462 242.329 39.1693 242.252 39.1889C242.104 39.2324 241.952 39.2733 241.797 39.3065C241.642 39.3397 241.578 39.3576 241.46 39.378C241.363 39.4036 241.262 39.4232 241.16 39.4368L241.187 39.4828C241.312 39.4624 241.433 39.4445 241.558 39.4189L241.592 39.7358C241.733 39.7358 241.865 39.7205 241.993 39.7205C242.053 39.7179 242.114 39.7179 242.175 39.7205C242.438 39.7205 242.667 39.7205 242.849 39.7205C242.778 39.6055 242.704 39.4854 242.643 39.3704ZM311.049 121.942C309.465 120.324 306.305 102.963 306.305 102.963C306.305 102.963 300.087 90.618 301.782 85.6913C303.477 80.7646 297.152 68.159 297.152 68.159C297.152 68.159 292.974 66.7817 292.748 64.7374C292.748 64.7374 275.687 60.6488 274.888 57.5824C274.241 55.0679 263.66 53.2638 259.859 52.694C258.7 49.1472 257.534 45.838 256.675 44.0313C256.442 43.4692 256.223 42.9837 256.021 42.6003C254.569 39.7895 250.08 39.5339 246.825 39.7588C246.684 39.2797 246.422 38.8259 246.053 38.4223C245.999 38.2836 245.893 38.16 245.747 38.0671C245.677 38.022 245.602 37.981 245.524 37.9445C245.465 37.8617 245.388 37.7873 245.295 37.7247C245.203 37.6616 245.101 37.6067 244.992 37.5612C244.913 37.5291 244.832 37.5009 244.749 37.4769C244.554 37.4205 244.352 37.3785 244.146 37.3516C243.906 37.3142 243.663 37.2903 243.418 37.2801C244.013 37.0828 244.543 36.7888 244.972 36.4189C245.263 36.1593 245.48 35.8564 245.608 35.5297C245.715 35.258 245.763 34.9749 245.75 34.6915C245.663 34.8083 245.561 34.9186 245.447 35.0212C245.588 33.8891 244.8 32.7392 244.348 31.6123C243.801 30.1452 243.7 28.6032 244.052 27.1021C244.503 24.8381 245.622 22.5485 246.38 20.2435C246.382 20.2308 246.382 20.2179 246.38 20.2052C246.778 19.0605 247.024 17.8886 247.115 16.7069C247.246 14.3228 246.441 11.9437 245.147 9.77169C243.998 7.84751 242.303 5.95399 239.708 5.17205C237.781 4.58177 235.621 4.67632 233.545 4.57921C228.888 4.35945 224.446 3.11755 220.019 1.98808C215.591 0.858615 211.035 -0.168639 206.374 0.0281238C201.714 0.224886 196.919 1.92931 194.792 5.05706C194.119 6.03321 193.731 7.11924 192.926 8.03661C191.416 9.76658 188.713 10.6328 186.459 11.8262C184.205 13.0196 182.22 14.7138 181.404 16.735C180.959 17.824 180.896 18.9823 181.222 20.0953C181.296 20.3467 181.39 20.5942 181.506 20.8364C181.825 21.5116 182.324 22.1299 182.971 22.6532C183.459 23.04 184.02 23.3698 184.636 23.6319C185.409 23.9569 186.237 24.201 187.096 24.3577C187.066 24.4343 187.035 24.5161 187.002 24.5953C186.948 24.7256 186.9 24.8508 186.85 24.9914C186.739 25.3057 186.634 25.6251 186.547 25.9471C186.543 25.97 186.543 25.9932 186.547 26.0161C186.133 27.4696 185.925 28.9524 185.927 30.4394C185.926 31.1427 185.973 31.8455 186.068 32.545C187.416 42.9147 198.705 51.0943 212.652 51.6259C213.131 51.6437 213.613 51.654 214.101 51.654C214.324 51.654 214.543 51.654 214.775 51.654C214.994 51.8737 215.21 52.0986 215.415 52.3184C215.621 52.5381 215.81 52.763 215.988 52.9828L215.5 52.5995L215.011 52.2596C214.879 52.3975 214.731 52.5265 214.57 52.6454C214.251 52.5605 213.926 52.4905 213.596 52.4359C212.197 52.2008 210.068 52.1139 207.264 52.7553C204.686 53.3405 201.535 54.5441 197.849 56.8311L179.885 65.0083L170.166 69.4904L166.665 75.981C166.665 75.981 164.033 83.693 161.105 92.5294C160.99 92.555 160.879 92.5805 160.768 92.6112C160.531 92.5907 160.292 92.5805 160.054 92.5805C158.355 92.5775 156.72 93.0739 155.494 93.9654C154.267 94.857 153.544 96.0743 153.476 97.3616C147.653 102.728 147.323 108.094 148.691 110.557C148.815 110.788 148.971 111.008 149.156 111.214C150.052 112.195 151.727 114.725 153.425 117.421C153.381 117.643 153.354 117.83 153.341 117.971C153.338 118.017 153.338 118.063 153.341 118.109C153.341 118.109 154.352 129.687 150.982 133.006C150.244 133.729 150.355 134.68 150.982 135.733C153.24 139.52 162.166 144.577 162.166 144.577C162.166 144.577 172.872 144.533 178.837 144.04C178.82 144.495 178.806 144.947 178.793 145.39C178.658 149.856 178.658 153.6 178.658 153.6L178.436 158.284C178.436 158.284 176.414 168.155 175.403 170.877C174.766 172.584 175.501 188.388 176.141 200.008H281.621C282.861 193.134 281.112 172.249 281.112 172.249C281.112 172.249 279.451 166.849 279.39 162.142C279.387 162.137 279.385 162.132 279.385 162.126C279.385 162.12 279.387 162.114 279.39 162.109C279.39 161.698 279.39 161.297 279.411 160.903L280.176 160.883L281.55 160.847H281.675C281.675 160.847 281.709 160.75 281.786 160.591C281.968 160.197 282.216 159.821 282.524 159.475C283.111 158.818 284.027 158.174 285.405 158.131C286.167 158.108 287.346 157.64 288.677 156.95C288.686 156.951 288.696 156.951 288.704 156.95C292.286 155.113 297.021 151.722 298.17 151.165C299.75 150.398 307.319 145.287 307.319 145.287C307.319 145.287 308.448 144.204 309.651 142.898L309.695 142.852C311.191 141.217 312.781 139.262 312.39 138.646C311.716 137.542 312.842 134.902 312.842 134.902C316.357 130.024 312.633 123.559 311.049 121.942ZM245.888 43.344C245.92 43.4202 245.941 43.4991 245.949 43.579C245.865 43.4947 245.78 43.4053 245.696 43.3235L245.615 43.2417L245.558 43.1804L245.686 43.0475C245.686 43.0475 245.686 43.0475 245.686 43.0654C245.775 43.1483 245.843 43.2426 245.888 43.344ZM244.756 41.0799C244.389 41.1361 244.099 41.1872 243.91 41.2256C243.671 40.9036 243.442 40.5816 243.236 40.2545C243.776 40.4922 244.285 40.7686 244.756 41.0799ZM244.122 41.4837C244.121 41.4786 244.121 41.4734 244.122 41.4683L244.149 41.4837C244.288 41.5527 244.422 41.6191 244.547 41.6881C244.658 41.7494 244.759 41.8082 244.86 41.8695C244.793 41.959 244.719 42.0509 244.645 42.125C244.527 41.9845 244.416 41.8491 244.308 41.7085C244.24 41.6523 244.18 41.5756 244.122 41.4837ZM242.101 38.3303C242.752 38.2816 243.407 38.2816 244.058 38.3303C244.149 38.3303 244.23 38.3431 244.311 38.3533C244.494 38.3748 244.673 38.4099 244.847 38.4581C245.245 38.8806 245.49 39.3749 245.558 39.8917L245.376 39.9121L245.197 39.9377C244.86 39.9811 244.523 40.0245 244.261 40.0654L243.924 40.1191C243.475 40.1932 243.216 40.2494 243.206 40.252C243.162 40.183 243.118 40.1191 243.071 40.0527C242.997 39.9428 242.919 39.8303 242.852 39.7205C242.785 39.6106 242.697 39.4854 242.626 39.3704C242.579 39.309 242.545 39.2477 242.508 39.1915C242.508 39.166 242.475 39.1455 242.461 39.12C242.442 39.0928 242.425 39.0647 242.411 39.0356C242.205 38.7188 242.016 38.4019 241.834 38.0901C241.814 38.0595 241.797 38.0263 241.78 37.9956L242.037 37.9828V38.0493L242.101 38.3303ZM161.701 196.849C161.674 193.044 161.311 188.928 160.3 185.064C159.868 183.421 159.423 181.778 158.972 180.163C158.857 179.759 158.746 179.36 158.635 178.962L157.597 179.067H157.503C154.672 168.945 151.713 160.027 151.713 160.027C151.713 160.027 145.837 143.01 146.517 141.654C146.605 141.477 146.494 141.002 146.244 140.304C144.822 136.436 138.885 125.775 136.809 122.131C136.809 122.115 136.792 122.097 136.785 122.085C136.448 121.474 136.206 121.063 136.132 120.942L136.62 115.505L136.647 115.178L136.711 114.482L136.684 114.465L136.711 114.143C136.711 114.143 131.582 110.954 122.895 108.651C122.558 108.559 122.201 108.47 121.847 108.383C122.282 106.183 122.858 103.699 123.61 101.279C123.68 101.036 123.758 100.801 123.839 100.563C123.91 100.326 123.99 100.096 124.071 99.8633C124.199 99.4851 124.337 99.112 124.479 98.7441C124.947 98.6316 125.409 98.5064 125.864 98.3735L126.039 98.3224C131.643 96.6688 136.268 93.5312 139.056 89.4908C141.844 85.4503 142.607 80.7806 141.203 76.3464C140.403 73.8315 138.925 71.4694 136.863 69.4086C136.708 69.2501 136.543 69.0917 136.378 68.9358C136.213 68.78 136.014 68.6062 135.828 68.4478C136.802 66.7689 137.951 65.1718 138.046 63.5389C138.063 63.3321 138.063 63.1248 138.046 62.918V62.8924C137.921 61.8422 137.308 60.7791 135.879 59.6625C133.793 58.0245 130.824 57.194 127.855 56.7953C124.887 56.3967 121.861 56.3865 118.875 56.1182C113.925 55.6684 109.103 54.5109 104.153 54.1557C98.0553 53.7275 91.9166 54.5205 86.3501 56.4555C82.667 57.7332 78.9367 59.9665 78.7143 63.0304C78.5323 65.5628 80.8574 67.9904 80.2711 70.4921C79.6881 72.9503 76.3858 74.8847 76.6756 77.3711C76.7868 78.3421 77.4439 79.2109 78.2661 79.9852C78.5491 80.2407 78.849 80.4963 79.1591 80.7518C80.3587 81.7152 81.6796 82.6402 82.3502 83.854C82.3772 83.9051 82.4041 83.9562 82.4277 84.0073C82.9972 85.2058 82.7411 86.7211 81.3326 87.4085C81.3404 87.4131 81.3462 87.4193 81.3494 87.4264C81.3696 87.4468 81.3898 87.4622 81.4067 87.4826C81.4088 87.4785 81.4088 87.4739 81.4067 87.4698C81.9061 87.9188 82.5794 88.2371 83.3308 88.3795L83.6173 88.446C83.3847 88.6376 83.1657 88.837 82.9433 89.0465L82.7984 89.1921C82.427 89.5708 82.0893 89.9677 81.7875 90.3804C81.6156 90.6104 81.4505 90.8403 81.3123 91.0703C80.8504 91.7713 80.516 92.5166 80.3183 93.2858C79.9577 94.9775 80.4665 96.7407 79.9206 98.3965C79.2467 100.441 77.1136 102.01 75.9106 103.908C73.6326 107.486 74.9233 111.684 75.3816 115.635C76.005 121.001 74.994 126.39 73.9865 131.721C73.4518 134.556 72.9171 137.393 72.3825 140.233C71.0346 147.361 69.6867 154.488 68.3388 161.616C67.8468 164.228 67.2638 166.982 64.969 168.998H64.9926C64.9926 168.998 64.9926 169.014 64.969 169.019C65.6579 169.247 66.3905 169.39 67.1391 169.443C70.1348 169.671 73.3092 168.572 76.005 167.371C78.1399 166.435 80.1617 165.359 82.047 164.153C81.7706 164.92 81.4741 165.756 81.1573 166.655C81.1584 166.664 81.1584 166.672 81.1573 166.681C77.3529 177.669 71.2334 197.813 71.2334 197.813C71.2334 197.813 70.6774 198.689 69.9562 199.995H164.984C163.872 198.973 162.837 197.994 162.028 197.204L161.701 196.849ZM91.3408 95.2483C91.3643 95.2177 91.3812 95.1896 91.4048 95.1615C91.4048 95.2432 91.4048 95.3224 91.4048 95.3991C91.4048 95.4758 91.4048 95.5448 91.4048 95.6163C91.4048 95.6879 91.4048 95.6802 91.4048 95.716C91.4048 95.8207 91.3745 95.9255 91.3509 96.0303C91.3509 96.0303 91.3509 96.043 91.3509 96.0533L91.6878 96.1478L92.0787 96.2705C94.3881 96.9621 96.7268 97.5882 99.0946 98.1487C99.3372 98.2074 99.5832 98.2637 99.8292 98.3173L99.8797 98.6342C99.9404 98.9587 99.9977 99.2884 100.052 99.618C100.052 99.618 100.052 99.6333 100.052 99.6435C100.203 100.556 100.352 101.466 100.483 102.355C100.483 102.355 94.296 100.566 94.3735 103.282C94.37 103.331 94.37 103.38 94.3735 103.428C94.3667 103.493 94.3667 103.558 94.3735 103.622C94.4308 105.738 95.3036 106.993 95.4788 107.637C95.4683 107.663 95.4499 107.688 95.4249 107.708C95.2754 107.955 95.2239 108.229 95.2766 108.498C95.2708 108.955 95.3181 109.412 95.4182 109.862C95.2362 109.947 95.0576 110.031 94.879 110.118C94.7442 110.182 94.6162 110.253 94.4847 110.325C93.6581 108.15 92.5766 106.036 91.2531 104.008C90.3265 102.562 89.2852 101.054 89.2953 99.4672C89.2953 99.365 89.2953 99.2602 89.3122 99.1555C89.3497 98.6956 89.4652 98.2412 89.6559 97.8037C89.7334 97.6376 89.8176 97.4741 89.912 97.3131C90.1322 96.9305 90.3785 96.5569 90.65 96.1938C90.8252 95.9536 91.0105 95.716 91.1891 95.4758C91.2464 95.4042 91.3003 95.3301 91.3542 95.2586L91.3408 95.2483ZM242.643 39.3704C242.596 39.309 242.562 39.2477 242.525 39.1915C242.525 39.166 242.491 39.1455 242.478 39.12C242.405 39.1462 242.329 39.1693 242.252 39.1889C242.104 39.2324 241.952 39.2733 241.797 39.3065C241.642 39.3397 241.578 39.3576 241.46 39.378L241.16 39.4368L241.187 39.4828C241.312 39.4624 241.433 39.4445 241.558 39.4189L241.592 39.7358C241.733 39.7358 241.865 39.7205 241.993 39.7205H242.175C242.438 39.7205 242.667 39.7205 242.849 39.7205C242.778 39.6055 242.704 39.4854 242.643 39.3704Z" fill="url(#paint1_linear_8_160)"/>
<path d="M169.014 76.9034L166.992 77.5806C166.992 77.5806 153.813 116.407 153.813 119.545C153.813 122.683 181.758 140.143 181.758 140.143L186.119 117.825C186.119 117.825 179.858 66.6437 169.014 76.9034Z" fill="#E8F5FF"/>
<path d="M230.313 64.5534L218.637 59.9333C217.983 57.8191 216.822 55.814 215.213 54.0177C213.505 52.1471 211.234 50.3098 208.403 49.3516C201.249 46.9189 238.663 34.1498 238.663 34.1498C239.253 35.6837 239.947 37.1934 240.743 38.6728C242.67 42.2809 245.868 46.947 249.989 48.2758C256.995 50.5373 230.313 64.5534 230.313 64.5534Z" fill="#FFC1C7"/>
<path opacity="0.1" d="M240.743 38.6728C239.144 42.9364 235.819 46.7114 231.239 49.4648C226.658 52.2182 221.052 53.8108 215.213 54.0177C213.505 52.1471 211.234 50.3098 208.403 49.3516C201.249 46.9189 238.663 34.1498 238.663 34.1498C239.253 35.6837 239.947 37.1934 240.743 38.6728Z" fill="black"/>
<path d="M241.794 32.2256C241.795 36.4071 240.161 40.495 237.099 43.9723C234.036 47.4495 229.682 50.1599 224.588 51.7607C219.494 53.3615 213.888 53.7807 208.48 52.9654C203.072 52.1501 198.104 50.1368 194.204 47.1802C190.305 44.2236 187.649 40.4565 186.574 36.3553C185.498 32.2542 186.05 28.0032 188.16 24.14C190.271 20.2769 193.844 16.975 198.429 14.6522C203.015 12.3293 208.405 11.0897 213.919 11.0903C217.584 11.0774 221.216 11.6153 224.606 12.6729C227.995 13.7304 231.074 15.2867 233.666 17.2518C236.258 19.217 238.311 21.552 239.706 24.1221C241.101 26.6922 241.81 29.4463 241.794 32.2256Z" fill="#FFC1C7"/>
<path d="M245.817 61.8396L238.215 75.291L231.509 84.2194H210.044L203.783 72.0125L206.32 59.3532H222.714L233.299 58.9009L236.874 57.9964L239.179 58.9878L245.817 61.8396Z" fill="#575A89"/>
<path opacity="0.1" d="M243.199 43.9087C243.199 43.9087 247.94 44.6753 243.694 47.315C239.449 49.9546 224.8 58.349 224.8 58.349C224.8 58.349 229.946 61.8243 228.881 65.8949L245.929 58.6888L248.961 47.1591C248.961 47.1591 249.302 43.694 243.199 43.9087Z" fill="black"/>
<path opacity="0.1" d="M228.153 58.349L217.309 59.7059C217.309 59.7059 219.547 65.9793 218.428 67.7604C218.394 67.8157 218.366 67.873 218.344 67.9316L213.919 77.0005L217.235 84.1223L228.713 72.2527L224.8 67.7604C224.8 67.7604 228.935 63.6053 231.395 62.1641C233.855 60.7229 228.153 58.349 228.153 58.349Z" fill="black"/>
<path d="M228.153 57.9989L217.309 59.3532C217.309 59.3532 219.547 65.6266 218.428 67.4077C218.394 67.4631 218.366 67.5203 218.344 67.5789L213.919 76.6479L217.235 83.7697L228.713 71.8924L224.8 67.4001C224.8 67.4001 228.935 63.245 231.395 61.8038C233.855 60.3626 228.153 57.9989 228.153 57.9989Z" fill="#DCE6F2"/>
<path d="M243.654 43.2315C243.654 43.2315 248.395 43.9981 244.146 46.6378C239.897 49.2775 224.8 58.349 224.8 58.349C224.8 58.349 230.391 61.1471 229.329 65.2152L246.377 58.0117L249.41 46.4819C249.41 46.4819 249.747 43.0169 243.654 43.2315Z" fill="#575A89"/>
<path opacity="0.1" d="M215.958 54.8175C215.958 54.8175 216.992 56.2843 221.559 58.9291C221.559 58.9291 213.956 61.9955 216.864 66.3064L205.235 64.0066L203.446 59.7672L215.958 54.8175Z" fill="black"/>
<path d="M215.51 54.4802C215.51 54.4802 216.544 55.9469 221.11 58.5917C221.11 58.5917 213.508 61.6428 216.416 65.9665L204.791 63.6667L203.001 59.4299L215.51 54.4802Z" fill="#575A89"/>
<path opacity="0.1" d="M245.817 61.8396L238.215 75.291L231.523 84.2194H210.044L203.783 72.0125L206.317 59.3532H210.876C210.802 62.3072 212.224 65.7774 212.133 67.0679C211.978 69.1888 216.305 80.6317 216.305 80.6317C216.305 80.6317 225.36 69.5261 228.935 68.5372C231.183 67.9162 235.944 62.7493 239.176 58.9878L245.817 61.8396Z" fill="black"/>
<path d="M267.802 142.316L267.03 143.052C267.03 143.052 272.62 164.33 271.074 169.162C270.811 170.033 270.661 170.922 270.626 171.815V171.853C270.353 176.77 272.31 183.15 272.31 183.15C272.31 183.15 273.874 201.958 272.984 209.693H168.313C167.7 198.255 167.039 183.437 167.639 181.793C168.65 179.082 170.672 169.247 170.672 169.247L170.894 164.586C170.894 164.586 170.894 160.081 171.076 155.062C171.154 152.805 171.268 150.437 171.433 148.336C171.646 145.694 171.942 143.468 172.35 142.375C172.601 141.546 172.745 140.7 172.781 139.85C172.781 139.771 172.781 139.689 172.801 139.607C172.801 139.352 172.835 139.076 172.849 138.792C172.849 138.713 172.849 138.633 172.849 138.536C172.913 136.891 172.889 134.938 172.818 132.915C172.818 132.805 172.818 132.692 172.818 132.58C172.761 131.062 172.677 129.513 172.582 128.042C172.289 123.442 171.908 119.553 171.908 119.553L159.053 87.2529L162.517 80.7828L172.131 76.316L189.906 68.1772C198.577 62.7726 204.285 63.4217 206.462 64.0145C206.673 64.0692 206.88 64.1332 207.082 64.2062C207.149 64.2317 207.203 64.2522 207.254 64.2752C207.323 64.3 207.39 64.3291 207.453 64.3621C206.857 64.5795 206.339 64.903 205.943 65.305C205.497 65.7624 205.18 66.2842 205.01 66.8382C204.896 67.1816 204.816 67.5309 204.77 67.8833C204.726 68.2539 204.71 68.6372 204.71 69.023C204.734 69.8692 204.829 70.7134 204.996 71.5503C204.996 71.5656 204.996 71.5861 204.996 71.6065C205.107 72.2044 205.245 72.7896 205.38 73.339C205.379 73.3484 205.379 73.3578 205.38 73.3671C205.535 74.0085 205.69 74.6014 205.795 75.1124C205.815 75.2044 205.832 75.2888 205.849 75.368C205.923 75.7057 205.958 76.0477 205.953 76.3901C205.991 77.2169 206.138 78.0387 206.391 78.8433C206.479 79.1806 206.58 79.5409 206.691 79.9165C206.843 80.4276 207.008 80.9847 207.186 81.5519C207.284 81.8637 207.389 82.1857 207.496 82.5051C207.537 82.6329 207.581 82.7606 207.621 82.8909L207.689 83.0928C208.406 85.2572 209.185 87.4114 209.663 88.7146C209.946 89.4812 210.125 89.954 210.125 89.954C210.125 89.954 215.2 83.7317 219.25 80.1899C219.311 80.1388 219.365 80.0903 219.422 80.0443C219.823 79.6942 220.217 79.3748 220.595 79.0937C221.42 78.4702 222.162 78.0256 222.758 77.862C222.885 77.8266 223.008 77.783 223.125 77.7317C224.783 77.0187 227.459 74.4302 229.963 71.7189C230.209 71.4634 230.448 71.1849 230.69 70.9217C231.247 70.3135 231.786 69.7028 232.295 69.1176C232.685 68.6704 233.059 68.236 233.413 67.822C235.098 65.8339 236.284 64.3518 236.284 64.3518L238.623 64.2726L239.031 64.2573H239.304L249.922 63.8842C249.922 63.8842 250.38 63.943 251.135 64.058C251.175 64.058 251.216 64.058 251.26 64.0784C255.027 64.6457 265.493 66.4421 266.134 68.9336C266.915 71.9847 283.798 76.0554 283.798 76.0554C284.02 78.0997 288.155 79.4463 288.155 79.4463C288.155 79.4463 294.416 91.9931 292.741 96.9096C291.087 101.765 297.048 113.775 297.206 114.112L296.064 115.206L267.802 142.316Z" fill="#E8F5FF"/>
<path opacity="0.1" d="M243.196 43.0169C243.196 43.0169 253.531 40.7937 255.88 45.3703C258.228 49.947 263.482 68.4299 263.482 68.4299C263.482 68.4299 249.841 70.3796 246.266 68.4299C244.168 67.2727 241.573 66.758 238.997 66.9886L231.284 70.9724L229.006 70.4614C229.006 70.4614 241.346 56.55 244.028 51.8226C246.71 47.0952 247.617 44.9819 243.196 43.0169Z" fill="black"/>
<path d="M242.748 41.9947C242.748 41.9947 253.089 39.7716 255.448 44.3482C257.807 48.9248 263.05 67.4077 263.05 67.4077C263.05 67.4077 249.413 69.3575 245.834 67.4077C243.738 66.2505 241.144 65.7358 238.569 65.9665L230.849 69.9503L228.571 69.4392C228.571 69.4392 240.911 55.5279 243.593 50.8005C246.276 46.0731 247.169 43.9649 242.748 41.9947Z" fill="#E8F5FF"/>
<path opacity="0.1" d="M173.374 115.729C173.374 115.729 181.088 117.171 182.543 120.477C183.999 123.784 176.842 123.868 176.842 123.868C176.842 123.868 172.481 118.019 173.374 115.729Z" fill="black"/>
<path opacity="0.1" d="M202.105 140.143C202.105 140.143 183.214 169.476 187.574 172.274C191.935 175.073 202.105 140.143 202.105 140.143Z" fill="black"/>
<path opacity="0.1" d="M228.153 118.528C228.153 118.528 243.246 147.02 240.227 151.42C237.208 155.82 246.71 151.42 246.71 151.42L228.153 118.528Z" fill="black"/>
<path d="M249.17 146.672C249.17 146.672 198.193 148.538 213.063 160.576C227.934 172.614 258.451 161.087 258.451 161.087L249.17 146.672Z" fill="#FFC1C7"/>
<path opacity="0.1" d="M241.794 32.2256C241.798 34.9982 241.08 37.7442 239.681 40.3056C239.213 40.3465 238.744 40.3721 238.293 40.3874C237.619 39.2656 237.979 37.97 237.993 36.7358C238.006 35.5016 237.406 34.0501 235.839 33.7179C232.716 33.051 230.559 37.4794 227.479 36.6796C225.12 36.0714 225.737 33.3576 224.379 31.7912C223.304 30.5518 221.151 30.2018 219.476 29.4249C215.914 27.7665 216.022 25.114 214.367 22.6047C212.635 19.9752 208.976 20.7521 205.798 22.3032C203.385 23.4837 201.303 25.0655 198.722 26.0059C196.487 26.8236 193.977 27.12 191.5 27.1634C189.975 27.2083 188.45 27.086 186.971 26.8006C188.711 21.8416 192.769 17.5317 198.39 14.6746C204.011 11.8174 210.81 10.6081 217.52 11.2721C224.23 11.9362 230.392 14.4282 234.858 18.2835C239.323 22.1388 241.788 27.0942 241.79 32.2256H241.794Z" fill="black"/>
<path d="M205.808 21.626C203.392 22.8066 201.313 24.3858 198.732 25.3312C196.498 26.1464 193.987 26.4428 191.51 26.4863C188.478 26.5374 185.212 26.1336 183.14 24.4726C181.236 22.9394 180.781 20.5808 181.586 18.5698C182.392 16.5587 184.323 14.8901 186.59 13.6814C188.858 12.4727 191.49 11.6371 192.993 9.90712C193.788 8.9923 194.172 7.91394 194.833 6.94035C196.946 3.82537 201.697 2.13884 206.29 1.9293C210.883 1.71976 215.436 2.75723 219.81 3.88159C224.184 5.00595 228.591 6.24274 233.208 6.47528C235.263 6.57238 237.4 6.47528 239.307 7.06556C241.871 7.85517 243.553 9.74358 244.699 11.6652C245.983 13.8321 246.781 16.1984 246.646 18.5647C246.363 23.6166 241.962 28.574 243.897 33.4138C244.409 34.7043 245.369 36.028 244.857 37.3184C244.109 39.2017 240.904 39.631 238.313 39.7205C237.639 38.5987 238 37.3005 238.013 36.0688C238.027 34.8372 237.427 33.3832 235.863 33.051C232.736 32.3891 230.579 36.8099 227.506 36.0126C225.164 35.4019 225.771 32.6907 224.409 31.1242C223.334 29.8823 221.178 29.5348 219.506 28.758C215.944 27.0996 216.052 24.4471 214.398 21.9377C212.652 19.2955 208.989 20.0723 205.808 21.626Z" fill="#99607E"/>
<path d="M156.377 118.865L153.806 119.545C153.806 119.545 154.817 131.074 151.447 134.381C148.077 137.688 162.514 145.908 162.514 145.908C162.514 145.908 182.301 145.824 182.86 144.631C183.42 143.437 181.849 123.268 181.849 123.268C181.849 123.268 171.228 120.13 172.121 115.129C172.121 115.129 168.879 126.912 164.074 126.403C159.268 125.895 153.813 122.851 156.377 118.865Z" fill="#E8F5FF"/>
<path opacity="0.1" d="M164.953 129.97C168.7 129.97 171.737 127.864 171.737 125.266C171.737 122.668 168.7 120.562 164.953 120.562C161.207 120.562 158.17 122.668 158.17 125.266C158.17 127.864 161.207 129.97 164.953 129.97Z" fill="black"/>
<path d="M172.37 119.205C172.37 119.205 171.022 88.009 159.289 94.9596C147.555 101.91 147.441 110.223 149.675 112.678C151.909 115.134 159.073 127.428 159.073 127.428C160.194 127.92 161.452 128.205 162.746 128.257C164.039 128.31 165.33 128.129 166.514 127.73C167.697 127.331 168.74 126.725 169.555 125.962C170.37 125.199 170.935 124.3 171.204 123.339L172.37 119.205Z" fill="#FFC1C7"/>
<path opacity="0.1" d="M245.565 40.1855C245.51 40.0485 245.405 39.9261 245.261 39.8329C244.682 39.4317 243.435 39.2911 241.555 39.4138L241.632 40.0884C244.139 39.9249 244.635 40.3031 244.699 40.3669V40.4308L244.776 40.5152C245.089 40.8337 245.31 41.1983 245.426 41.5856C245.542 41.9728 245.55 42.3741 245.45 42.7639C244.901 44.8465 241.528 46.5049 241.494 46.5228L241.413 46.5586L241.363 46.6173C239.907 48.2553 231.675 52.878 229.521 54.0739L229.333 53.9103C228.369 54.5441 219.897 60.1684 219.439 62.3226C219.142 63.6743 217.134 64.1982 216.406 64.3438C215.638 63.9018 213.144 62.3967 211.847 60.7101C210.63 59.1233 215.527 56.0262 215.958 54.8175L215.284 54.2936C215.213 54.4878 208.925 58.9444 210.674 61.2212C212.076 63.0483 214.637 64.6122 215.533 65.1283C215.247 67.1011 213.464 78.6845 210.725 81.429C207.321 84.8404 204.46 102.033 204.777 108.035C205.057 113.368 203.22 123.442 197.087 127.768C196.025 128.55 194.745 129.139 193.34 129.493C191.936 129.847 190.444 129.956 188.976 129.812H188.902H188.828C188.74 129.812 179.844 130.502 172.37 125.723C166.254 121.821 162.79 115.454 162.069 106.791H161.92L161.86 104.269C163.518 104.072 165.012 103.396 166.026 102.383C167.041 101.369 167.498 100.096 167.302 98.8323C167.105 97.5684 166.27 96.4114 164.972 95.6044C163.674 94.7975 162.014 94.4035 160.341 94.5052C158.668 94.6068 157.112 95.1963 156 96.1497C154.889 97.103 154.307 98.3461 154.379 99.6177C154.45 100.889 155.168 102.09 156.383 102.969C157.598 103.847 159.214 104.334 160.893 104.327H160.967L161.027 106.834L160.731 106.85C161.472 115.793 165.112 122.409 171.514 126.495C176.381 129.553 182.597 131.096 188.905 130.811C189.353 130.848 189.803 130.867 190.253 130.867C193.145 130.879 195.928 130.03 198.004 128.504C204.464 123.942 206.428 113.499 206.122 107.984C205.785 101.624 208.787 85.0499 211.8 82.032C214.752 79.0704 216.541 67.5304 216.854 65.2944C217.922 65.067 220.339 64.349 220.75 62.4835C221.046 61.1343 226.704 56.9768 230.185 54.6744L230.081 54.5824C231.954 53.5449 237.781 50.2741 240.668 48.1736C241.565 47.5219 242.454 46.8703 243.384 46.2494C244.503 45.4981 245.925 44.3048 246.299 42.8942C246.427 42.4286 246.427 41.9481 246.301 41.4823C246.175 41.0165 245.924 40.5752 245.565 40.1855Z" fill="black"/>
<path d="M215.419 64.9673C215.277 64.8932 211.921 63.0713 210.24 60.8788C208.494 58.602 214.782 54.148 214.849 53.9538L215.523 54.4776C215.095 55.6837 210.199 58.7834 211.416 60.3677C212.949 62.3686 216.177 64.119 216.211 64.1369L215.419 64.9673Z" fill="#353146"/>
<path d="M229.083 54.5696L228.557 54.0202C228.665 53.9614 239.25 48.1557 240.918 46.2775L240.972 46.2213L241.049 46.1829C241.083 46.165 244.456 44.5092 245.005 42.424C245.107 42.0347 245.099 41.6336 244.983 41.2467C244.867 40.8597 244.645 40.4956 244.331 40.1779L244.254 40.091V40.0296C244.186 39.9632 243.691 39.5876 241.184 39.7511L241.106 39.0739C242.99 38.9513 244.234 39.0918 244.813 39.493C244.957 39.5872 245.064 39.7103 245.12 39.8482C245.484 40.2367 245.74 40.6777 245.871 41.144C246.002 41.6103 246.005 42.092 245.881 42.5594C245.507 43.9726 244.089 45.1659 242.967 45.9146C242.04 46.5356 241.147 47.1923 240.254 47.8388C236.867 50.2996 229.454 54.3677 229.083 54.5696Z" fill="#E8F5FF"/>
<path d="M161.425 103.379L160.532 103.391L160.632 107.507L161.524 107.495L161.425 103.379Z" fill="#E8F5FF"/>
<path d="M160.458 104.003C164.059 104.003 166.978 101.789 166.978 99.0584C166.978 96.3275 164.059 94.1137 160.458 94.1137C156.857 94.1137 153.938 96.3275 153.938 99.0584C153.938 101.789 156.857 104.003 160.458 104.003Z" fill="#6C63FF"/>
<path d="M160.458 103.165C163.449 103.165 165.873 101.326 165.873 99.0583C165.873 96.7904 163.449 94.9519 160.458 94.9519C157.467 94.9519 155.043 96.7904 155.043 99.0583C155.043 101.326 157.467 103.165 160.458 103.165Z" fill="#E8F5FF"/>
<path d="M189.829 130.538C189.379 130.538 188.929 130.52 188.481 130.484C182.173 130.766 175.958 129.224 171.09 126.168C164.687 122.08 161.054 115.471 160.306 106.52L161.654 106.456C162.375 115.119 165.84 121.489 171.959 125.389C179.433 130.154 188.326 129.477 188.414 129.477H188.488H188.562C190.03 129.621 191.522 129.512 192.927 129.158C194.332 128.804 195.613 128.214 196.676 127.433C202.806 123.107 204.642 113.034 204.363 107.701C204.026 101.693 206.887 84.5005 210.293 81.0917C213.276 78.1044 215.126 64.6403 215.146 64.5048L215.196 64.1215L215.695 64.0551C215.726 64.0551 218.637 63.636 219.001 61.9853C219.473 59.8337 227.931 54.2093 228.891 53.573L229.771 54.3396C226.276 56.6395 220.618 60.7996 220.335 62.1514C219.924 64.0219 217.508 64.7374 216.443 64.9623C216.106 67.2007 214.33 78.7382 211.389 81.6998C208.376 84.7177 205.374 101.292 205.711 107.652C206 113.166 204.056 123.613 197.596 128.172C195.516 129.702 192.727 130.551 189.829 130.538Z" fill="#353146"/>
<g opacity="0.1">
<path d="M244.665 26.1847C245.218 24.6362 245.885 23.0774 246.35 21.5084C245.794 23.0851 245.123 24.6362 244.665 26.1847Z" fill="black"/>
<path d="M239.027 38.3533C238.353 37.2315 238.714 35.9334 238.727 34.7017C238.741 33.4701 238.141 32.0288 236.577 31.6839C233.45 31.022 231.294 35.4453 228.22 34.6455C225.862 34.0348 226.485 31.3236 225.124 29.7571C224.049 28.5152 221.895 28.1677 220.224 27.3909C216.659 25.7324 216.767 23.08 215.115 20.5706C213.38 17.9386 209.724 18.7154 206.543 20.2691C204.127 21.4497 202.048 23.0314 199.466 23.9744C197.232 24.7895 194.722 25.0859 192.245 25.1294C189.229 25.183 185.947 24.7767 183.874 23.1158C182.277 21.8381 181.701 19.965 182.031 18.2095C181.974 18.3296 181.923 18.4497 181.873 18.5698C181.064 20.5808 181.536 22.9445 183.426 24.4726C185.499 26.1336 188.781 26.5374 191.797 26.4863C194.277 26.4428 196.784 26.1464 199.021 25.3312C201.609 24.3858 203.689 22.8066 206.098 21.626C209.279 20.0723 212.939 19.2955 214.671 21.9275C216.322 24.4369 216.217 27.0893 219.779 28.7478C221.464 29.5144 223.604 29.8721 224.682 31.114C226.03 32.6856 225.434 35.3917 227.779 36.0024C230.849 36.7997 233.006 32.3789 236.133 33.0408C237.696 33.373 238.299 34.8295 238.283 36.0586C238.266 37.2878 237.915 38.5884 238.582 39.7102C241.174 39.6208 244.378 39.1992 245.13 37.3082C245.233 37.0368 245.281 36.755 245.271 36.4726C244.176 37.9062 241.359 38.2741 239.027 38.3533Z" fill="black"/>
</g>
<path opacity="0.1" d="M299.929 101.317L303.841 104.455C303.841 104.455 306.972 121.747 308.535 123.365C310.099 124.982 313.792 131.417 310.325 136.249C310.325 136.249 309.206 138.878 309.877 139.98C310.547 141.081 304.849 146.593 304.849 146.593C304.849 146.593 297.358 151.678 295.791 152.442C294.224 153.206 285.955 159.309 283.161 159.393C280.368 159.477 279.454 162.107 279.454 162.107L263.691 162.531C263.691 162.531 254.983 162.186 253.089 163.119C253.089 163.119 254.1 153.03 244.372 146.417L256.779 143.026C256.779 143.026 261.477 141.493 262.929 139.89C263.843 138.908 265.139 138.167 266.636 137.772C266.636 137.772 270.1 135.907 270.211 134.89C270.322 133.873 274.447 132.625 274.447 132.625L272.112 117.511L273.342 92.417C273.342 92.417 277.254 71.3915 285.527 72.5798C293.8 73.768 299.929 101.317 299.929 101.317Z" fill="black"/>
<path d="M301.277 101.317L305.189 104.455C305.189 104.455 308.32 121.747 309.883 123.365C311.447 124.982 315.14 131.417 311.673 136.249C311.673 136.249 310.557 138.878 311.228 139.98C311.899 141.081 306.197 146.593 306.197 146.593C306.197 146.593 298.706 151.678 297.139 152.442C295.572 153.206 287.303 159.309 284.509 159.393C281.716 159.477 280.802 162.107 280.802 162.107L265.039 162.531C265.039 162.531 256.324 162.186 254.437 163.119C254.437 163.119 255.448 153.03 245.72 146.417L258.127 143.026C258.127 143.026 262.825 141.493 264.277 139.89C265.191 138.908 266.487 138.167 267.984 137.772C267.984 137.772 271.448 135.907 271.559 134.89C271.67 133.873 275.795 132.625 275.795 132.625L273.46 117.511L274.69 92.417C274.69 92.417 278.602 71.3915 286.875 72.5798C295.147 73.768 301.277 101.317 301.277 101.317Z" fill="#E8F5FF"/>
<path opacity="0.1" d="M286.733 126.666C286.733 126.666 298.247 124.367 301.267 127.177C304.286 129.988 286.733 126.666 286.733 126.666Z" fill="black"/>
<path opacity="0.1" d="M284.051 130.522C287.963 132.6 300.037 132.684 300.037 132.684L284.051 130.522Z" fill="black"/>
<path opacity="0.1" d="M289.975 140.907C290.312 140.992 298.275 147.436 301.617 145.487C304.96 143.537 289.975 140.907 289.975 140.907Z" fill="black"/>
<path opacity="0.1" d="M182.735 86.8208C182.735 86.8208 185.074 99.0303 183.922 104.003C182.769 108.976 186.975 115.137 186.975 115.137L182.735 86.8208Z" fill="black"/>
<path d="M130.962 91.7858C128.267 93.388 126.299 97.1802 124.873 101.348C122.386 108.618 121.574 117.048 121.574 117.048C121.574 117.048 100.109 113.317 101.672 111.623C102.656 110.557 101.335 102.529 100.234 96.7074C99.5765 93.2679 98.9901 90.5976 98.9901 90.5976C98.9901 90.5976 138.342 87.3753 130.962 91.7858Z" fill="#FFCCD0"/>
<path opacity="0.1" d="M130.962 91.446C128.267 93.0507 126.299 96.8403 124.873 101.008C120.597 101.993 116.048 102.082 111.71 101.265C107.372 100.449 103.407 98.7572 100.234 96.3701C99.5765 92.9281 98.9901 90.2577 98.9901 90.2577C98.9901 90.2577 138.342 87.038 130.962 91.446Z" fill="black"/>
<path d="M142.501 82.3131C142.503 86.7577 140.431 91.0596 136.653 94.4574C132.875 97.8552 127.633 100.13 121.856 100.879C116.079 101.628 110.138 100.803 105.086 98.5497C100.034 96.2967 96.1957 92.7609 94.2507 88.5682C92.3057 84.3755 92.3794 79.7962 94.4588 75.6407C96.5381 71.4852 100.489 68.0215 105.612 65.8627C110.735 63.7038 116.701 62.9889 122.452 63.8446C128.204 64.7003 133.37 67.0713 137.038 70.538C140.573 73.8775 142.5 78.0311 142.501 82.3131Z" fill="#FFCCD0"/>
<path opacity="0.1" d="M162.072 200.003H154.996L154.399 190.525L153.776 180.715C153.776 180.715 155.383 180.533 157.944 180.262L158.979 180.158H159.063C159.622 182.148 160.175 184.193 160.707 186.234C161.594 189.859 162.055 193.536 162.086 197.222C162.086 197.478 162.086 197.733 162.086 197.974C162.106 198.656 162.086 199.338 162.072 200.003Z" fill="black"/>
<path d="M160.714 200.003H71.968C72.3522 199.341 72.6083 198.94 72.6083 198.94C72.6083 198.94 79.7084 175.384 83.3174 165.418C83.3185 165.41 83.3185 165.401 83.3174 165.393C83.7683 164.039 84.3127 162.704 84.9483 161.394C84.9894 161.305 85.0425 161.219 85.1067 161.138C86.8927 158.935 89.1302 156.562 85.9997 153.171C82.8692 149.78 83.9778 134.859 83.9778 134.859C83.9778 134.859 87.7789 122.141 91.8024 115.359C92.413 114.308 93.2796 113.355 94.3567 112.548C94.7069 112.288 95.0807 112.047 95.4755 111.827C95.7756 111.656 96.0883 111.499 96.4123 111.355L96.4763 111.324C98.1665 110.597 100.043 110.155 101.979 110.028C103.354 109.919 104.742 109.949 106.107 110.115C112.631 110.841 117.854 112.055 122.006 113.437C133.257 117.186 136.664 122.21 136.731 122.315L136.758 122.358C137.21 123.158 143.815 134.851 146.194 140.307C146.81 141.728 147.147 142.727 147.013 143C146.339 144.355 152.155 161.309 152.155 161.309C152.155 161.309 154.851 169.486 157.546 179.072C157.664 179.47 157.776 179.869 157.883 180.273C158.365 182.013 158.844 183.786 159.306 185.557C160.2 189.207 160.661 192.91 160.684 196.622C160.733 197.779 160.743 198.905 160.714 200.003Z" fill="#FF748E"/>
<path opacity="0.1" d="M101.45 104.197C101.45 104.197 95.3272 102.408 95.4013 105.122C95.4754 107.836 96.8941 109.134 96.4459 109.53C95.9978 109.926 96.6683 112.3 96.6683 112.3C96.6683 112.3 104.941 112.3 108.742 113.598C112.543 114.896 126.555 117.498 128.344 118.29C130.133 119.082 136.769 122.634 136.769 122.634L137.365 115.908C137.365 115.908 130.507 111.613 119.256 109.41C108.004 107.207 101.45 104.197 101.45 104.197Z" fill="black"/>
<path d="M101.45 103.857C101.45 103.857 95.3272 102.069 95.4013 104.782C95.4754 107.496 96.8941 108.794 96.4459 109.19C95.9978 109.586 96.6683 111.96 96.6683 111.96C96.6683 111.96 104.941 111.96 108.742 113.261C112.543 114.562 126.555 117.16 128.344 117.95C130.133 118.74 136.769 122.294 136.769 122.294L137.372 115.589C137.372 115.589 130.514 111.293 119.263 109.091C108.011 106.888 101.45 103.857 101.45 103.857Z" fill="#FF748E"/>
<path opacity="0.1" d="M119.933 120.043C119.933 120.043 131.633 129.649 131.037 132.309C130.44 134.969 119.933 120.043 119.933 120.043Z" fill="black"/>
<path opacity="0.1" d="M100.928 154.742C100.928 154.742 92.3517 160.734 89.8244 161.074C87.2971 161.414 91.762 162.544 94.6667 161.642C97.5715 160.74 103.765 158.366 103.765 158.366L100.928 154.742Z" fill="black"/>
<path d="M164.198 200.003H144.199C141.402 198.163 138.757 196.458 137.072 195.434C134.376 193.793 132.432 191.378 131.192 189.436C130.912 188.994 130.669 188.58 130.464 188.204C130.096 187.557 129.772 186.896 129.493 186.224L144.303 179.555C145.122 180.082 145.891 180.653 146.605 181.262L146.783 181.417C147.606 182.153 148.33 182.989 148.394 183.674C148.468 184.471 151.393 187.555 154.382 190.517C157.415 193.53 160.522 196.41 160.727 196.604C160.727 196.604 161.24 197.133 162.075 197.946C162.665 198.533 163.393 199.239 164.198 200.003Z" fill="#FFCCD0"/>
<path opacity="0.1" d="M137.038 70.538C136.327 71.7544 135.69 73.0167 135.596 74.3711C135.33 78.2808 135.761 87.0226 130.053 88.9851C127.225 89.9511 124.199 87.8301 121.099 87.779C118.868 87.7432 116.823 88.8165 115.462 90.158C114.1 91.4996 113.254 93.0916 112.267 94.6095C111.368 95.9872 110.333 97.3113 109.17 98.5703C108.823 98.9556 108.44 99.3219 108.025 99.6665C104.544 98.5527 101.444 96.8511 98.962 94.6914C96.4798 92.5316 94.6805 89.9707 93.7012 87.2037C92.7219 84.4367 92.5884 81.5368 93.3109 78.7247C94.0334 75.9127 95.5929 73.2629 97.8704 70.9771C100.148 68.6914 103.084 66.83 106.453 65.5349C109.823 64.2398 113.539 63.545 117.316 63.5037C121.094 63.4623 124.834 64.0754 128.252 65.2962C131.669 66.517 134.675 68.3133 137.038 70.5482V70.538Z" fill="black"/>
<path d="M135.148 73.6811C134.878 77.5908 135.313 86.3327 129.601 88.2926C126.774 89.2586 123.748 87.1402 120.648 87.0891C118.417 87.0507 116.375 88.1265 115.01 89.4655C113.645 90.8046 112.806 92.3991 111.816 93.9195C110.916 95.2971 109.881 96.6212 108.719 97.8803C108.025 98.6265 107.256 99.3752 106.188 99.7943C104.328 100.53 102.074 100.116 100.079 99.6435C97.4906 99.0251 94.9409 98.3284 92.4293 97.5533C92.4869 97.2657 92.5162 96.9753 92.5169 96.6844C92.4427 96.7918 92.3619 96.8914 92.281 96.9987L92.1226 97.2083C91.8362 97.5916 91.5565 97.9749 91.3004 98.3684C91.2027 98.5192 91.1083 98.6751 91.0241 98.8309C90.6852 99.411 90.4724 100.029 90.3939 100.661C90.2221 102.365 91.3307 103.983 92.3147 105.516C96.0989 111.447 98.4375 118.382 95.5901 124.604C94.3568 127.31 92.2203 129.715 90.6601 132.329C87.9328 136.959 87.13 142.109 88.3586 147.094C89.137 150.191 90.6972 153.257 90.3131 156.398C89.6391 161.803 83.4927 165.825 77.3361 168.59C74.0101 170.077 69.9395 171.4 66.408 170.225C68.659 168.232 69.2386 165.475 69.7238 162.873C71.0515 155.778 72.3826 148.679 73.717 141.577C74.2494 138.751 74.7807 135.924 75.3109 133.098C76.3016 127.788 77.3058 122.419 76.6857 117.076C76.2342 113.138 74.9604 108.958 77.2114 105.393C78.4009 103.505 80.5205 101.941 81.181 99.9067C81.7235 98.2534 81.2181 96.4953 81.5753 94.8114C81.7708 94.0452 82.1018 93.3025 82.5592 92.6035C83.1418 91.655 83.9022 90.7753 84.817 89.992C83.9139 89.7926 83.0714 89.5192 82.5592 88.9468C84.0082 88.2313 84.2273 86.6189 83.5702 85.4076C82.9131 84.1964 81.5988 83.2739 80.4161 82.3182C79.2333 81.3625 78.0943 80.2484 77.946 78.9452C77.6596 76.4639 80.9283 74.5423 81.5045 72.0942C82.0875 69.6028 79.7825 67.1803 79.9679 64.6582C80.1835 61.6096 83.8768 59.3941 87.5229 58.1088C93.025 56.1773 99.1029 55.3839 105.14 55.809C110.053 56.1616 114.808 57.3141 119.707 57.7613C122.663 58.0168 125.658 58.0423 128.594 58.4359C131.529 58.8294 134.47 59.6599 136.536 61.2928C141.982 65.5985 135.458 69.1428 135.148 73.6811Z" fill="#FFE0D0"/>
<path opacity="0.1" d="M130.592 189.439C128.873 188.874 125.746 189.211 120.378 187.972C115.01 186.733 113.975 181.131 113.975 181.131V181.113C113.911 180.986 113.413 180.153 110.036 177.234C106.306 174.012 98.242 157.737 98.242 157.737C98.242 157.737 91.0914 151.913 91.3172 149.767C91.543 147.62 90.0468 141.909 90.1951 135.521C90.3433 129.132 106.292 124.896 106.292 124.896C137.001 120.769 129.77 147.615 128.951 149.649C128.132 151.683 132.381 157.177 132.381 157.177C131.781 159.569 134.841 163.272 134.841 163.272C134.841 163.272 135.582 166.548 135.734 167.792C135.742 167.85 135.759 167.906 135.785 167.961C136.277 169.134 140.287 170.197 141.918 170.843C143.633 171.523 149.149 177.457 149.149 177.457C150.339 181.814 132.304 190.011 130.592 189.439Z" fill="black"/>
<path d="M131.485 188.417C129.77 187.849 126.639 188.189 121.274 186.947C115.91 185.705 114.872 180.109 114.872 180.109V180.091C114.811 179.961 114.309 179.13 110.933 176.212C107.202 172.99 99.1385 156.712 99.1385 156.712C99.1385 156.712 91.9878 150.891 92.2102 148.745C92.4326 146.598 90.9432 140.887 91.0915 134.504C91.2397 128.12 107.179 123.886 107.179 123.886C137.887 119.759 130.656 146.606 129.837 148.64C129.018 150.674 133.267 156.168 133.267 156.168C132.668 158.56 135.727 162.263 135.727 162.263C135.727 162.263 136.469 165.538 136.624 166.783C136.629 166.841 136.645 166.897 136.671 166.952C137.163 168.124 141.173 169.188 142.807 169.834C144.519 170.511 150.039 176.447 150.039 176.447C151.235 180.796 133.2 188.994 131.485 188.417Z" fill="#FF748E"/>
<path opacity="0.1" d="M107.785 137.902C107.785 137.902 121.2 148.635 124.701 148.635C128.203 148.635 107.785 137.902 107.785 137.902Z" fill="black"/>
<path d="M131.485 188.417C129.77 187.849 126.639 188.189 121.274 186.947C115.91 185.705 114.872 180.109 114.872 180.109V180.091C118.427 178.302 127.431 173.251 130.979 171.403C133.476 170.107 135.515 168.204 136.708 166.941C137.2 168.114 141.21 169.177 142.844 169.824C144.556 170.501 150.076 176.437 150.076 176.437C151.235 180.797 133.2 188.994 131.485 188.417Z" fill="#FF748E"/>
<g opacity="0.1">
<path d="M82.5795 88.9749C82.5963 88.9954 82.6199 89.0132 82.6401 89.0337C82.7412 88.9366 82.8457 88.8395 82.9535 88.7475C82.8387 88.8322 82.7134 88.9083 82.5795 88.9749Z" fill="black"/>
<path d="M90.3973 100.689C90.5388 99.2704 91.5396 98.0209 92.4764 96.7739C91.8631 96.595 91.2498 96.4136 90.6433 96.2245C90.7011 95.9378 90.7303 95.6482 90.7309 95.3582C89.784 96.6359 88.7529 97.8931 88.608 99.3318C88.4361 101.039 89.5447 102.654 90.5287 104.187C94.3163 110.115 96.6516 117.051 93.8041 123.275C92.5674 125.979 90.4344 128.386 88.8742 131C86.1478 135.63 85.3461 140.779 86.576 145.763C87.3477 148.862 88.9112 151.926 88.5271 155.067C87.8531 160.471 81.7101 164.493 75.5501 167.256C73.0329 168.385 70.0911 169.42 67.2774 169.346C67.0169 169.664 66.7263 169.967 66.408 170.253C69.9428 171.436 74.0101 170.105 77.3361 168.613C83.4994 165.853 89.6559 161.841 90.3299 156.426C90.7141 153.286 89.1505 150.222 88.3754 147.122C87.1452 142.139 87.9445 136.99 90.6669 132.36C92.217 129.748 94.3736 127.338 95.5968 124.635C98.4443 118.41 96.1057 111.475 92.3214 105.546C91.3408 104.003 90.2254 102.396 90.3973 100.689Z" fill="black"/>
<path d="M136.529 61.3234C136.198 61.0655 135.842 60.8264 135.465 60.6079C139.549 64.6249 133.652 68.0389 133.358 72.3625C133.096 76.2722 133.527 85.0167 127.815 86.9741C124.991 87.9425 121.962 85.8216 118.865 85.7705C116.631 85.7347 114.589 86.8105 113.224 88.1495C111.859 89.4885 111.02 91.0831 110.033 92.601C109.132 93.9784 108.096 95.3024 106.933 96.5618C106.259 97.3105 105.47 98.0567 104.399 98.4783C102.545 99.2117 100.291 98.8003 98.2927 98.325C96.3495 97.8616 94.4242 97.3505 92.5169 96.7917C92.513 97.0579 92.4837 97.3235 92.4293 97.5865C94.9432 98.3633 97.4941 99.0601 100.082 99.6767C102.077 100.152 104.331 100.563 106.188 99.8301C107.256 99.4084 108.031 98.6597 108.722 97.911C109.886 96.6534 110.921 95.3302 111.819 93.9527C112.81 92.4349 113.645 90.8378 115.013 89.4988C116.382 88.1598 118.42 87.0865 120.651 87.1223C123.751 87.1734 126.781 89.2943 129.605 88.3259C135.316 86.3685 134.882 77.624 135.148 73.7143C135.458 69.1684 141.982 65.6266 136.529 61.3234Z" fill="black"/>
</g>
<path opacity="0.1" d="M92.1259 97.2108C91.8394 97.5941 91.5598 97.9774 91.3037 98.3709C91.2059 98.5217 91.1116 98.6776 91.0273 98.8335C89.2616 97.4842 84.9618 94.2773 82.5625 93.2832C83.1459 92.335 83.9062 91.4555 84.8202 90.6717C84.8202 90.6717 90.5387 92.9638 92.1259 97.2108Z" fill="black"/>
<path d="M92.2843 97.0013C90.9599 92.4553 84.8202 89.9945 84.8202 89.9945C83.9055 90.7779 83.145 91.6575 82.5625 92.6061C85.0932 93.6563 89.7569 97.1776 91.3037 98.371L92.2843 97.0013Z" fill="#FF748E"/>
</g>
<defs>
<linearGradient id="paint0_linear_8_160" x1="246.003" y1="24.3806" x2="246.003" y2="19.6839" gradientUnits="userSpaceOnUse">
<stop stop-color="#808080" stop-opacity="0.25"/>
<stop offset="0.54" stop-color="#808080" stop-opacity="0.12"/>
<stop offset="1" stop-color="#808080" stop-opacity="0.1"/>
</linearGradient>
<linearGradient id="paint1_linear_8_160" x1="189.66" y1="200.003" x2="189.66" y2="1.7118e-05" gradientUnits="userSpaceOnUse">
<stop stop-color="#808080" stop-opacity="0.25"/>
<stop offset="0.54" stop-color="#808080" stop-opacity="0.12"/>
<stop offset="1" stop-color="#808080" stop-opacity="0.1"/>
</linearGradient>
<clipPath id="clip0_8_160">
<rect width="366" height="200" fill="white"/>
</clipPath>
</defs>
</svg>
