<svg width="206" height="177" viewBox="0 0 206 177" fill="none" xmlns="http://www.w3.org/2000/svg">
<path d="M94 155C134.614 155 168 124.799 168 87C168 49.2008 134.614 19 94 19C53.3857 19 20 49.2008 20 87C20 124.799 53.3857 155 94 155Z" fill="#F8F8FB" fill-opacity="0.8" stroke="#008000" stroke-width="6"/>
<path d="M85.6615 110.057L68.7615 89.1377C67.7462 87.8809 67.7462 85.8431 68.7615 84.5861L72.4384 80.0346C73.4537 78.7777 75.1 78.7777 76.1153 80.0346L87.5 94.1269L111.885 63.9426C112.9 62.6858 114.546 62.6858 115.562 63.9426L119.239 68.4941C120.254 69.7509 120.254 71.7887 119.239 73.0457L89.3385 110.057C88.3231 111.314 86.6768 111.314 85.6615 110.057Z" fill="#015F27"/>
<path d="M192.365 63.7731L189.53 69.5196L183.189 70.4441C182.052 70.6091 181.596 72.011 182.421 72.8139L187.009 77.2844L185.924 83.5995C185.728 84.741 186.931 85.596 187.938 85.0622L193.61 82.0804L199.283 85.0622C200.29 85.5917 201.492 84.741 201.297 83.5995L200.212 77.2844L204.799 72.8139C205.624 72.011 205.168 70.6091 204.031 70.4441L197.69 69.5196L194.856 63.7731C194.348 62.7488 192.877 62.7358 192.365 63.7731Z" fill="#015F27"/>
<path d="M140.365 0.77312L137.53 6.51965L131.189 7.44413C130.052 7.60906 129.596 9.01097 130.421 9.81392L135.009 14.2844L133.924 20.5995C133.728 21.741 134.931 22.596 135.938 22.0622L141.61 19.0804L147.283 22.0622C148.29 22.5917 149.492 21.741 149.297 20.5995L148.212 14.2844L152.799 9.81392C153.624 9.01097 153.168 7.60906 152.031 7.44413L145.69 6.51965L142.856 0.77312C142.348 -0.251186 140.877 -0.264207 140.365 0.77312Z" fill="#015F27"/>
<path d="M15.3646 119.773L12.5304 125.52L6.18926 126.444C5.0521 126.609 4.59637 128.011 5.42103 128.814L10.0087 133.284L8.92363 139.6C8.72832 140.741 9.93058 141.596 10.9375 141.062L16.6103 138.08L22.283 141.062C23.29 141.592 24.4922 140.741 24.2969 139.6L23.2118 133.284L27.7995 128.814C28.6242 128.011 28.1684 126.609 27.0313 126.444L20.6901 125.52L17.8559 119.773C17.3481 118.749 15.8768 118.736 15.3646 119.773Z" fill="#015F27"/>
<path d="M10.3646 41.7731L7.5304 47.5196L1.18926 48.4441C0.052104 48.6091 -0.403625 50.011 0.421028 50.8139L5.0087 55.2844L3.92363 61.5995C3.72832 62.741 4.93058 63.596 5.93752 63.0622L11.6103 60.0804L17.283 63.0622C18.29 63.5917 19.4922 62.741 19.2969 61.5995L18.2118 55.2844L22.7995 50.8139C23.6242 50.011 23.1684 48.6091 22.0313 48.4441L15.6901 47.5196L12.8559 41.7731C12.3481 40.7488 10.8768 40.7358 10.3646 41.7731Z" fill="#015F27"/>
<path d="M152.365 130.773L149.53 136.52L143.189 137.444C142.052 137.609 141.596 139.011 142.421 139.814L147.009 144.284L145.924 150.6C145.728 151.741 146.931 152.596 147.938 152.062L153.61 149.08L159.283 152.062C160.29 152.592 161.492 151.741 161.297 150.6L160.212 144.284L164.799 139.814C165.624 139.011 165.168 137.609 164.031 137.444L157.69 136.52L154.856 130.773C154.348 129.749 152.877 129.736 152.365 130.773Z" fill="#015F27"/>
<path d="M78.3646 154.773L75.5304 160.52L69.1893 161.444C68.0521 161.609 67.5964 163.011 68.421 163.814L73.0087 168.284L71.9236 174.6C71.7283 175.741 72.9306 176.596 73.9375 176.062L79.6103 173.08L85.283 176.062C86.29 176.592 87.4922 175.741 87.2969 174.6L86.2118 168.284L90.7995 163.814C91.6242 163.011 91.1684 161.609 90.0313 161.444L83.6901 160.52L80.8559 154.773C80.3481 153.749 78.8768 153.736 78.3646 154.773Z" fill="#015F27"/>
</svg>
